<svg width="800" height="1000" viewBox="0 0 800 1000" fill="none" xmlns="http://www.w3.org/2000/svg">
  <rect width="800" height="1000" fill="#FAF2EE"/>
  <circle cx="619" cy="182" r="130" fill="#E7C7BE"/>
  <path d="M578 309C578 494.015 455.015 681 304 681C152.985 681 84 477.015 84 292C84 106.985 206.985 0 358 0C509.015 0 578 123.985 578 309Z" fill="#DBB0A4"/>
  <rect x="160" y="391" width="486" height="500" rx="243" fill="#FFF8F4"/>
  <path d="M214 587C214 491.492 291.492 414 387 414H442C537.508 414 615 491.492 615 587V773C615 851.977 550.977 916 472 916H357C278.023 916 214 851.977 214 773V587Z" fill="#F0D7D0"/>
</svg>
