<svg width="800" height="1000" viewBox="0 0 800 1000" fill="none" xmlns="http://www.w3.org/2000/svg">
  <rect width="800" height="1000" fill="#F6ECE8"/>
  <path d="M719 190C719 294.382 634.382 379 530 379C425.618 379 341 294.382 341 190C341 85.6177 425.618 1 530 1C634.382 1 719 85.6177 719 190Z" fill="#E2BBB2"/>
  <path d="M538 244C538 432.88 425.88 629 287 629C148.12 629 36 432.88 36 244C36 55.1196 148.12 -98 287 -98C425.88 -98 538 55.1196 538 244Z" fill="#BB8579"/>
  <rect x="167" y="364" width="494" height="528" rx="247" fill="#FFF8F5"/>
  <path d="M225 544C225 466.68 287.68 404 365 404H456C533.32 404 596 466.68 596 544V792C596 847.228 551.228 892 496 892H325C269.772 892 225 847.228 225 792V544Z" fill="#E7CCC4"/>
</svg>
