<svg width="800" height="1000" viewBox="0 0 800 1000" fill="none" xmlns="http://www.w3.org/2000/svg">
  <rect width="800" height="1000" fill="#F8EFEB"/>
  <rect x="88" y="104" width="624" height="792" rx="36" fill="#FFF7F1"/>
  <circle cx="600" cy="272" r="110" fill="#E3C3B8"/>
  <path d="M565 341C565 500.058 455.058 650 320 650C184.942 650 94 479.058 94 320C94 160.942 204.942 32 340 32C475.058 32 565 181.942 565 341Z" fill="#C99588"/>
  <path d="M231 481C231 387.149 307.149 311 401 311H408C501.851 311 578 387.149 578 481V702C578 810.248 490.248 898 382 898H370C261.752 898 174 810.248 174 702V538C174 506.52 199.52 481 231 481Z" fill="#EFD7D0"/>
</svg>
