<svg width="800" height="1000" viewBox="0 0 800 1000" fill="none" xmlns="http://www.w3.org/2000/svg">
  <rect width="800" height="1000" fill="#FAF4F0"/>
  <circle cx="183" cy="832" r="138" fill="#EED8D1"/>
  <circle cx="596" cy="194" r="122" fill="#E4C0B7"/>
  <path d="M577 300C577 489.433 468.433 682 334.5 682C200.567 682 92 489.433 92 300C92 110.567 200.567 -82 334.5 -82C468.433 -82 577 110.567 577 300Z" fill="#D7A094"/>
  <path d="M178 514C178 412.38 260.38 330 362 330H389C490.62 330 573 412.38 573 514V697C573 817.398 475.398 915 355 915C234.602 915 137 817.398 137 697V555C137 532.356 155.356 514 178 514Z" fill="#FFF8F3"/>
</svg>
