<svg width="1200" height="1400" viewBox="0 0 1200 1400" fill="none" xmlns="http://www.w3.org/2000/svg">
  <rect width="1200" height="1400" fill="#F7ECE7"/>
  <circle cx="906" cy="318" r="250" fill="#E5C9C0"/>
  <circle cx="289" cy="1111" r="282" fill="#EFDAD3"/>
  <path d="M829 444C829 677.616 681.616 974 500 974C318.384 974 221 657.616 221 424C221 190.384 376.384 54 558 54C739.616 54 829 210.384 829 444Z" fill="#DDAEA0"/>
  <path d="M575 371C641.274 371 695 424.726 695 491V713C695 863.588 572.588 986 422 986H395C244.412 986 122 863.588 122 713V660C122 509.412 244.412 387 395 387H478C511.962 387 544.492 380.103 575 371Z" fill="#F8F3EF" fill-opacity="0.9"/>
  <path d="M739 498C838.411 498 919 578.589 919 678V697C919 926.749 732.749 1113 503 1113H445C344.484 1113 263 1031.52 263 931V872C263 663.311 432.311 494 641 494H739V498Z" fill="#704A44" fill-opacity="0.14"/>
</svg>
