<svg width="640" height="800" viewBox="0 0 640 800" fill="none" xmlns="http://www.w3.org/2000/svg">
<rect width="640" height="800" rx="48" fill="#F5F5F7"/>
<rect x="72" y="96" width="496" height="608" rx="40" fill="#FFFFFF"/>
<rect x="118" y="152" width="404" height="520" rx="32" fill="#E8DAD2"/>
<rect x="154" y="220" width="332" height="356" rx="146" fill="#E6B8A6"/>
<rect x="168" y="186" width="40" height="126" rx="20" fill="#F7EEE9"/>
<path d="M168 226C168 214.954 176.954 206 188 206V206C199.046 206 208 214.954 208 226V266H168V226Z" fill="#F7B09E"/>
<rect x="231" y="170" width="46" height="144" rx="23" fill="#FCF4EF"/>
<path d="M231 214C231 201.85 240.85 192 253 192V192C265.15 192 275 201.85 275 214V258H231V214Z" fill="#F0B5A6"/>
<rect x="298" y="158" width="50" height="160" rx="25" fill="#FFF8F3"/>
<path d="M298 206C298 192.193 309.193 181 323 181V181C336.807 181 348 192.193 348 206V252H298V206Z" fill="#F6C4B6"/>
<rect x="369" y="170" width="46" height="144" rx="23" fill="#FDF4EF"/>
<path d="M369 214C369 201.85 378.85 192 391 192V192C403.15 192 413 201.85 413 214V258H369V214Z" fill="#EDB09E"/>
<rect x="432" y="190" width="40" height="120" rx="20" fill="#F9EFE9"/>
<path d="M432 228C432 216.402 441.402 207 453 207V207C464.598 207 474 216.402 474 228V264H432V228Z" fill="#F2B8A7"/>
</svg>
